<?xml version="1.0" encoding="UTF-8"?>
<svg width="32px" height="32px" viewBox="0 0 32 32" version="1.1" xmlns="http://www.w3.org/2000/svg">
    <title>Planaday</title>
    <g id="Page-1" stroke="none" stroke-width="1" fill="none" fill-rule="evenodd">
        <g id="planaday-icon" fill-rule="nonzero">
            <circle id="background" fill="#2C5EA8" cx="16" cy="16" r="16"></circle>
            <path d="M7,8 L25,8 C25.5523,8 26,8.44772 26,9 L26,23 C26,23.5523 25.5523,24 25,24 L7,24 C6.44772,24 6,23.5523 6,23 L6,9 C6,8.44772 6.44772,8 7,8 Z" id="calendar-base" fill="#FFFFFF"></path>
            <rect id="header" fill="#FF5722" x="6" y="8" width="20" height="4" rx="1"></rect>
            <rect id="day-1" fill="#E0E0E0" x="8" y="14" width="4" height="2" rx="0.5"></rect>
            <rect id="day-2" fill="#E0E0E0" x="14" y="14" width="4" height="2" rx="0.5"></rect>
            <rect id="day-3" fill="#E0E0E0" x="20" y="14" width="4" height="2" rx="0.5"></rect>
            <rect id="day-4" fill="#E0E0E0" x="8" y="18" width="4" height="2" rx="0.5"></rect>
            <rect id="day-5" fill="#2C5EA8" x="14" y="18" width="4" height="2" rx="0.5"></rect>
            <rect id="day-6" fill="#E0E0E0" x="20" y="18" width="4" height="2" rx="0.5"></rect>
        </g>
    </g>
</svg>
